<?xml version="1.0" encoding="UTF-8"?>
<!DOCTYPE svg PUBLIC "-//W3C//DTD SVG 1.1//EN" "http://www.w3.org/Graphics/SVG/1.1/DTD/svg11.dtd">
<svg xmlns="http://www.w3.org/2000/svg" version="1.1" width="512px" height="512px" style="shape-rendering:geometricPrecision; text-rendering:geometricPrecision; image-rendering:optimizeQuality; fill-rule:evenodd; clip-rule:evenodd" xmlns:xlink="http://www.w3.org/1999/xlink">
<g><path style="opacity:0.992" fill="#fdcf48" d="M 511.5,86.5 C 511.5,87.1667 511.5,87.8333 511.5,88.5C 440.13,135.18 368.797,181.847 297.5,228.5C 283.518,237.474 269.518,246.474 255.5,255.5C 241.73,246.384 227.73,237.717 213.5,229.5C 147.341,186.863 81.0077,144.363 14.5,102C 10.3014,100.036 5.96806,98.5359 1.5,97.5C 7.86119,78.3201 21.1945,67.8201 41.5,66C 181.833,65.3333 322.167,65.3333 462.5,66C 476.959,66.3763 490.292,70.3763 502.5,78C 505.835,80.5294 508.835,83.3627 511.5,86.5 Z"/></g>
<g><path style="opacity:0.998" fill="#f6b345" d="M 511.5,88.5 C 511.5,195.5 511.5,302.5 511.5,409.5C 508.986,418.195 504.652,425.862 498.5,432.5C 432.868,366.368 367.035,300.368 301,234.5C 299.606,232.612 298.44,230.612 297.5,228.5C 368.797,181.847 440.13,135.18 511.5,88.5 Z"/></g>
<g><path style="opacity:0.998" fill="#f6b445" d="M 1.5,97.5 C 5.96806,98.5359 10.3014,100.036 14.5,102C 81.0077,144.363 147.341,186.863 213.5,229.5C 212.496,230.683 211.662,232.016 211,233.5C 144.632,299.701 78.4653,366.035 12.5,432.5C 6.34761,425.862 2.01428,418.195 -0.5,409.5C -0.5,306.833 -0.5,204.167 -0.5,101.5C 0.166667,100.167 0.833333,98.8333 1.5,97.5 Z"/></g>
<g><path style="opacity:0.994" fill="#f6a645" d="M 297.5,228.5 C 298.44,230.612 299.606,232.612 301,234.5C 367.035,300.368 432.868,366.368 498.5,432.5C 490.3,439.93 480.633,444.097 469.5,445C 326.833,445.667 184.167,445.667 41.5,445C 30.3668,444.097 20.7001,439.93 12.5,432.5C 78.4653,366.035 144.632,299.701 211,233.5C 211.662,232.016 212.496,230.683 213.5,229.5C 227.73,237.717 241.73,246.384 255.5,255.5C 269.518,246.474 283.518,237.474 297.5,228.5 Z"/></g>
</svg>
