<?xml version="1.0" encoding="UTF-8"?>
<!DOCTYPE svg PUBLIC "-//W3C//DTD SVG 1.1//EN" "http://www.w3.org/Graphics/SVG/1.1/DTD/svg11.dtd">
<svg xmlns="http://www.w3.org/2000/svg" version="1.1" width="512px" height="512px" style="shape-rendering:geometricPrecision; text-rendering:geometricPrecision; image-rendering:optimizeQuality; fill-rule:evenodd; clip-rule:evenodd" xmlns:xlink="http://www.w3.org/1999/xlink">
<g><path style="opacity:0.995" fill="#fdd743" d="M 345.5,30.5 C 345.5,60.5 345.5,90.5 345.5,120.5C 336.741,121.426 331.741,126.259 330.5,135C 331.292,144.291 336.292,149.458 345.5,150.5C 345.5,182.833 345.5,215.167 345.5,247.5C 328.308,265.859 310.308,283.359 291.5,300C 282.181,302.748 275.348,299.915 271,291.5C 270.5,274.17 270.333,256.837 270.5,239.5C 230.49,232.656 202.323,210.656 186,173.5C 170.326,124.539 182.159,83.7053 221.5,51C 236.112,40.2374 252.445,33.5708 270.5,31C 295.498,30.5 320.498,30.3334 345.5,30.5 Z"/></g>
<g><path style="opacity:1" fill="#f9be2c" d="M 345.5,30.5 C 370.502,30.3334 395.502,30.5 420.5,31C 460.482,38.2315 488.649,60.3982 505,97.5C 507.822,105.463 509.988,113.463 511.5,121.5C 511.5,130.833 511.5,140.167 511.5,149.5C 504.356,188.495 482.69,216.328 446.5,233C 439.953,235.405 433.286,237.405 426.5,239C 401.865,240.263 377.198,240.93 352.5,241C 350.297,243.372 347.963,245.539 345.5,247.5C 345.5,215.167 345.5,182.833 345.5,150.5C 354.825,149.842 359.825,144.842 360.5,135.5C 359.825,126.158 354.825,121.158 345.5,120.5C 345.5,90.5 345.5,60.5 345.5,30.5 Z"/></g>
<g><path style="opacity:0.994" fill="#fe6319" d="M 168.5,312.5 C 146.5,333.833 124.833,355.5 103.5,377.5C 44.3399,319.845 9.6732,249.845 -0.5,167.5C -0.5,156.5 -0.5,145.5 -0.5,134.5C 4.04709,118.115 14.3804,106.948 30.5,101C 57.1176,99.3691 83.7843,99.0358 110.5,100C 114.667,101.5 117.5,104.333 119,108.5C 129,138.5 139,168.5 149,198.5C 149.879,203.287 149.545,207.953 148,212.5C 139.121,225.093 130.621,237.926 122.5,251C 134.572,273.91 149.905,294.41 168.5,312.5 Z"/></g>
<g><path style="opacity:1" fill="#4d2846" d="M 345.5,120.5 C 354.825,121.158 359.825,126.158 360.5,135.5C 359.825,144.842 354.825,149.842 345.5,150.5C 345.5,140.5 345.5,130.5 345.5,120.5 Z"/></g>
<g><path style="opacity:1" fill="#4d2845" d="M 401.5,120.5 C 414.647,120.146 420.814,126.479 420,139.5C 415.258,149.792 407.758,152.626 397.5,148C 387.248,137.189 388.581,128.022 401.5,120.5 Z"/></g>
<g><path style="opacity:1" fill="#623e5b" d="M 281.5,120.5 C 294.18,120.015 300.347,126.015 300,138.5C 295.791,149.459 288.291,152.625 277.5,148C 267.216,137.156 268.549,127.99 281.5,120.5 Z"/></g>
<g><path style="opacity:1" fill="#623e5b" d="M 345.5,120.5 C 345.5,130.5 345.5,140.5 345.5,150.5C 336.292,149.458 331.292,144.291 330.5,135C 331.741,126.259 336.741,121.426 345.5,120.5 Z"/></g>
<g><path style="opacity:1" fill="#f03800" d="M 168.5,312.5 C 186.888,330.388 207.388,345.388 230,357.5C 243.074,349.379 255.907,340.879 268.5,332C 273.047,330.455 277.713,330.121 282.5,331C 313.982,341.272 345.316,351.938 376.5,363C 378.617,364.731 380.117,366.898 381,369.5C 381.667,394.833 381.667,420.167 381,445.5C 373.276,470.542 356.276,482.208 330,480.5C 270.696,478.398 216.196,461.231 166.5,429C 143.568,414.239 122.568,397.072 103.5,377.5C 124.833,355.5 146.5,333.833 168.5,312.5 Z"/></g>
</svg>
